<svg xmlns="http://www.w3.org/2000/svg" viewBox="0 0 64 64" role="img" aria-labelledby="title">
  <title>Blake Campbell</title>
  <rect width="64" height="64" fill="#111111"/>
  <rect x="6" y="6" width="52" height="52" fill="#f7f4ef" stroke="#111111" stroke-width="4"/>
  <rect x="6" y="6" width="18" height="18" fill="#d72d2d"/>
  <rect x="40" y="6" width="18" height="18" fill="#1f54c7"/>
  <rect x="6" y="40" width="18" height="18" fill="#f3c623"/>
  <path d="M29 18h10c6 0 10 3.2 10 8.3 0 3.3-1.7 5.7-4.7 6.9 3.7 1.1 5.7 3.9 5.7 7.8C50 47 45.4 50 38.7 50H29V18Zm8.8 12.1c2.7 0 4.2-1.1 4.2-3.1 0-2-1.5-3.1-4.2-3.1h-2.3v6.2h2.3Zm.8 13.9c3 0 4.7-1.2 4.7-3.5 0-2.2-1.7-3.5-4.7-3.5h-3.1V44h3.1Z" fill="#111111"/>
</svg>
