<svg xmlns="http://www.w3.org/2000/svg" width="200" height="21" viewBox="0 0 200 21" fill="none">
<path fill-rule="evenodd" clip-rule="evenodd" d="M11.8127 0L15.0767 5.67321C15.4265 6.25607 15.6207 6.87779 15.6207 7.61608C15.6207 8.39324 15.3876 9.09267 14.999 9.67554L9.90868 18.4962C9.28696 19.7008 8.04352 20.5168 6.60579 20.5557H6.56693H0L8.54867 5.75092C8.58752 5.71206 8.58752 5.67321 8.62638 5.63435L11.8127 0Z" fill="#82C8FB"></path>
<path fill-rule="evenodd" clip-rule="evenodd" d="M22.3816 0L25.6456 5.67321C25.9953 6.25607 26.1896 6.87779 26.1896 7.61608C26.1896 8.39324 25.9564 9.09267 25.5679 9.67553L20.4775 18.4573C19.8558 19.6619 18.6124 20.4779 17.1746 20.5168H17.1358H10.5688L19.1175 5.71206C19.1564 5.67321 19.1564 5.63435 19.1952 5.59549L22.3816 0Z" fill="#3E91E0"></path>
<path fill-rule="evenodd" clip-rule="evenodd" d="M27.666 9.13153L30.93 14.8047C30.93 14.8436 30.9688 14.8436 30.9688 14.8825L34.2329 20.5168H27.7048H27.666C25.6065 20.5168 23.8968 18.8459 23.8579 16.7865V16.7088C23.8579 15.9705 24.0522 15.271 24.4408 14.727L27.666 9.13153Z" fill="#416491"></path>
<path d="M36.8018 19.8942V0.620865H40.4544L48.6922 14.2599H46.7493L54.7928 0.620865H58.4843L58.5231 19.8942H54.3265L54.2877 7.07122H55.1037L48.6533 17.8736H46.6327L40.0269 7.07122H40.9595V19.8942H36.8018Z" fill="#416491"></path>
<path d="M68.3925 20.1274C66.8382 20.1274 65.4393 19.8165 64.1959 19.1559C62.9913 18.4954 62.0198 17.6016 61.3204 16.4359C60.621 15.2702 60.2712 13.9879 60.2712 12.5113C60.2712 11.0347 60.621 9.71354 61.3204 8.54781C62.0198 7.42094 62.9913 6.52722 64.1959 5.86664C65.4004 5.20606 66.7993 4.8952 68.3925 4.8952C69.9856 4.8952 71.3845 5.20606 72.5891 5.86664C73.7937 6.52722 74.7651 7.42094 75.4646 8.54781C76.164 9.67468 76.5137 10.9958 76.5137 12.5113C76.5137 13.9879 76.164 15.309 75.4646 16.4748C74.7651 17.6405 73.7937 18.5342 72.5891 19.1948C71.3845 19.8554 69.9468 20.1274 68.3925 20.1274ZM68.3925 16.5913C69.1308 16.5913 69.7525 16.4359 70.3354 16.0862C70.9182 15.7753 71.3457 15.2702 71.6954 14.6485C72.0451 14.0267 72.2005 13.2884 72.2005 12.4336C72.2005 11.5787 72.0451 10.8404 71.6954 10.2187C71.3457 9.59697 70.9182 9.13068 70.3354 8.81982C69.7525 8.50896 69.1308 8.31467 68.3925 8.31467C67.6542 8.31467 67.0325 8.4701 66.4496 8.81982C65.8667 9.13068 65.4393 9.59697 65.0896 10.2187C64.7399 10.8404 64.5844 11.5787 64.5844 12.4336C64.5844 13.2884 64.7399 14.0267 65.0896 14.6485C65.4393 15.2702 65.8667 15.7365 66.4496 16.0862C67.0325 16.4359 67.6542 16.5913 68.3925 16.5913Z" fill="#416491"></path>
<path d="M77.9514 19.8942V5.08949H82.0315V9.28611L81.4486 8.08152C81.876 7.03237 82.5755 6.21636 83.5469 5.71121C84.5183 5.16721 85.7229 4.8952 87.1218 4.8952V8.85867C86.9275 8.81982 86.7721 8.81982 86.6167 8.81982C86.4612 8.81982 86.3058 8.81982 86.1504 8.81982C84.9458 8.81982 84.0132 9.16953 83.2749 9.83011C82.5366 10.4907 82.1869 11.5398 82.1869 12.9776V19.9719H77.9514V19.8942Z" fill="#416491"></path>
<path d="M94.0784 20.1272C92.3298 20.1272 90.9698 19.6998 89.9983 18.8061C89.0269 17.9123 88.5606 16.5912 88.5606 14.8426V1.8253H92.8738V14.7649C92.8738 15.3866 93.0292 15.8917 93.3789 16.2026C93.6898 16.5523 94.1561 16.7077 94.7001 16.7077C95.3995 16.7077 95.9824 16.5135 96.4487 16.1637L97.5755 19.1946C97.1481 19.5055 96.6041 19.7386 96.0212 19.8941C95.3607 20.0495 94.7389 20.1272 94.0784 20.1272ZM88.5217 8.70309V5.4002H96.5264V8.70309H88.5217Z" fill="#416491"></path>
<path d="M108.299 19.8944V17.0189L108.027 16.3583V11.1903C108.027 10.2577 107.755 9.55827 107.173 9.05313C106.629 8.54798 105.735 8.27597 104.569 8.27597C103.792 8.27597 103.015 8.39255 102.238 8.6257C101.46 8.85884 100.839 9.20856 100.295 9.63599L98.7793 6.64396C99.5953 6.06109 100.567 5.63366 101.694 5.3228C102.821 5.01194 103.986 4.85651 105.152 4.85651C107.406 4.85651 109.193 5.40051 110.437 6.44967C111.68 7.49882 112.302 9.1697 112.302 11.4234V19.8944H108.299ZM103.792 20.1275C102.626 20.1275 101.655 19.9332 100.839 19.5447C100.023 19.1561 99.3622 18.6121 98.9347 17.9515C98.5073 17.2909 98.2742 16.5138 98.2742 15.6589C98.2742 14.804 98.5073 14.0269 98.9347 13.3663C99.3622 12.7057 100.062 12.2006 100.994 11.812C101.927 11.4234 103.17 11.2292 104.647 11.2292H108.571V13.716H105.113C104.103 13.716 103.403 13.8715 103.015 14.2212C102.626 14.532 102.471 14.9595 102.471 15.4646C102.471 16.0086 102.665 16.4361 103.093 16.7469C103.52 17.0578 104.103 17.2521 104.841 17.2521C105.579 17.2521 106.201 17.0966 106.784 16.7469C107.367 16.3972 107.755 15.8921 108.027 15.2315L108.688 17.2132C108.377 18.1458 107.833 18.8841 106.978 19.3892C106.162 19.8555 105.074 20.1275 103.792 20.1275Z" fill="#416491"></path>
<path d="M114.478 19.8942V5.08949H118.558V9.28611L117.975 8.08152C118.402 7.03237 119.102 6.21636 120.073 5.71121C121.044 5.16721 122.249 4.8952 123.648 4.8952V8.85867C123.454 8.81982 123.298 8.81982 123.143 8.81982C122.987 8.81982 122.832 8.81982 122.676 8.81982C121.472 8.81982 120.539 9.16953 119.801 9.83011C119.063 10.4907 118.713 11.5398 118.713 12.9776V19.9719H114.478V19.8942Z" fill="#416491"></path>
<path d="M131.886 20.2441C130.332 20.2441 128.855 20.0498 127.457 19.6224C126.058 19.1949 124.892 18.6898 124.037 18.0292L125.553 14.6486C126.369 15.2315 127.34 15.7366 128.467 16.0863C129.594 16.4749 130.759 16.6692 131.886 16.6692C132.78 16.6692 133.48 16.5915 134.024 16.3972C134.568 16.2029 134.956 15.9698 135.228 15.6589C135.5 15.348 135.617 14.9983 135.617 14.6098C135.617 14.1046 135.422 13.6772 134.995 13.3663C134.606 13.0555 134.062 12.8223 133.402 12.628C132.741 12.4337 132.003 12.2394 131.226 12.084C130.41 11.9286 129.633 11.6954 128.817 11.4623C128.001 11.2291 127.301 10.8794 126.641 10.4908C125.98 10.1023 125.436 9.55827 125.047 8.89769C124.659 8.23711 124.426 7.38225 124.426 6.37195C124.426 5.28394 124.737 4.27364 125.319 3.37992C125.902 2.48619 126.796 1.7479 128.001 1.20389C129.205 0.659884 130.721 0.387878 132.547 0.387878C133.752 0.387878 134.956 0.543311 136.122 0.815314C137.288 1.08732 138.337 1.51475 139.23 2.09762L137.832 5.47822C136.938 4.97307 136.044 4.5845 135.15 4.35136C134.257 4.11821 133.363 4.00163 132.508 4.00163C131.653 4.00163 130.915 4.11821 130.371 4.3125C129.827 4.50678 129.438 4.77879 129.205 5.08965C128.972 5.40051 128.855 5.78908 128.855 6.17766C128.855 6.68281 129.05 7.11024 129.477 7.38224C129.866 7.6931 130.41 7.92625 131.07 8.12054C131.731 8.31483 132.469 8.47025 133.246 8.66454C134.062 8.81997 134.84 9.05312 135.656 9.28627C136.472 9.51941 137.171 9.86913 137.832 10.2577C138.492 10.6463 139.036 11.1903 139.425 11.8509C139.813 12.5114 140.046 13.3663 140.046 14.3766C140.046 15.4646 139.736 16.4361 139.153 17.3298C138.57 18.2235 137.637 18.9618 136.433 19.5058C135.228 19.9721 133.713 20.2441 131.886 20.2441Z" fill="#416491"></path>
<path d="M147.313 20.1272C145.564 20.1272 144.204 19.6998 143.233 18.8061C142.262 17.9123 141.795 16.5912 141.795 14.8426V1.8253H146.108V14.7649C146.108 15.3866 146.264 15.8917 146.614 16.2026C146.924 16.5523 147.391 16.7077 147.935 16.7077C148.634 16.7077 149.217 16.5135 149.683 16.1637L150.81 19.1946C150.383 19.5055 149.839 19.7386 149.256 19.8941C148.634 20.0495 147.974 20.1272 147.313 20.1272ZM139.503 8.70309V5.4002H149.8V8.70309H139.503Z" fill="#416491"></path>
<path d="M158.542 20.1274C156.988 20.1274 155.589 19.8165 154.345 19.1559C153.141 18.4954 152.169 17.6016 151.47 16.4359C150.77 15.2702 150.421 13.9879 150.421 12.5113C150.421 11.0347 150.77 9.71354 151.47 8.54781C152.169 7.42094 153.141 6.52722 154.345 5.86664C155.55 5.20606 156.949 4.8952 158.542 4.8952C160.135 4.8952 161.534 5.20606 162.739 5.86664C163.982 6.52722 164.915 7.42094 165.614 8.54781C166.313 9.67468 166.663 10.9958 166.663 12.5113C166.663 13.9879 166.313 15.309 165.614 16.4748C164.915 17.6405 163.943 18.5342 162.739 19.1948C161.534 19.7777 160.135 20.1274 158.542 20.1274ZM158.542 16.5913C159.28 16.5913 159.902 16.4359 160.485 16.0862C161.068 15.7753 161.495 15.2702 161.845 14.6485C162.194 14.0267 162.35 13.2884 162.35 12.4336C162.35 11.5787 162.194 10.8404 161.845 10.2187C161.495 9.59697 161.068 9.13068 160.485 8.81982C159.902 8.50896 159.28 8.31467 158.542 8.31467C157.804 8.31467 157.182 8.4701 156.599 8.81982C156.016 9.16954 155.589 9.59697 155.239 10.2187C154.889 10.8404 154.734 11.5787 154.734 12.4336C154.734 13.2884 154.889 14.0267 155.239 14.6485C155.589 15.2702 156.016 15.7365 156.599 16.0862C157.182 16.4359 157.842 16.5913 158.542 16.5913Z" fill="#416491"></path>
<path d="M176.921 4.8952C178.087 4.8952 179.136 5.12835 180.069 5.59464C181.002 6.06093 181.74 6.76037 182.245 7.73181C182.789 8.70325 183.061 9.94668 183.061 11.4621V19.9331H178.748V12.0839C178.748 10.8793 178.476 10.0244 177.971 9.44154C177.427 8.85867 176.727 8.58667 175.756 8.58667C175.056 8.58667 174.435 8.7421 173.929 9.01411C173.385 9.28611 172.958 9.7524 172.686 10.3353C172.375 10.9181 172.22 11.6564 172.22 12.589V19.9331H167.906V5.08949H172.025V9.2084L171.248 7.96495C171.792 6.95465 172.531 6.1775 173.541 5.67235C174.512 5.12835 175.639 4.8952 176.921 4.8952Z" fill="#416491"></path>
<path d="M192.853 20.1272C191.144 20.1272 189.667 19.8164 188.423 19.1558C187.141 18.4952 186.17 17.6015 185.47 16.4358C184.771 15.27 184.421 13.9877 184.421 12.5111C184.421 11.0346 184.771 9.71339 185.431 8.58652C186.092 7.45965 187.063 6.52707 188.268 5.90535C189.473 5.24477 190.833 4.93391 192.309 4.93391C193.747 4.93391 195.068 5.24477 196.234 5.86649C197.4 6.48821 198.332 7.38194 198.993 8.50881C199.653 9.63568 200.003 11.0345 200.003 12.6277C200.003 12.7831 200.003 12.9774 200.003 13.2106C200.003 13.4437 199.964 13.5991 199.964 13.7934H187.918V11.3066H197.672L196.001 12.0448C196.001 11.2677 195.845 10.6071 195.534 10.0243C195.224 9.44139 194.796 9.01396 194.252 8.66424C193.708 8.31452 193.048 8.15909 192.309 8.15909C191.571 8.15909 190.91 8.31452 190.366 8.66424C189.822 8.9751 189.356 9.44139 189.084 10.0243C188.773 10.6071 188.618 11.2677 188.618 12.0837V12.7443C188.618 13.5603 188.812 14.2597 189.162 14.8814C189.511 15.5032 190.017 15.9695 190.677 16.2803C191.338 16.5912 192.115 16.7855 192.97 16.7855C193.747 16.7855 194.446 16.6689 195.029 16.4358C195.612 16.2026 196.156 15.814 196.7 15.3477L198.993 17.8346C198.293 18.6118 197.438 19.1946 196.428 19.6221C195.418 20.0495 194.213 20.1272 192.853 20.1272Z" fill="#416491"></path>
</svg>