<svg xmlns="http://www.w3.org/2000/svg" width="472" height="151" viewBox="0 0 472 151" fill="none">
<path d="M63.2143 139.762C62.1007 140.98 60.0485 140.202 60.0518 138.564L60.1423 93.1112C60.1461 91.1971 61.1872 89.4305 62.8733 88.4768L150.906 38.6861C152.695 37.674 154.539 39.9195 153.158 41.4292L63.2143 139.762Z" fill="#FFC107"/>
<path d="M134.389 27.5639C136.016 27.9046 136.358 30.0427 134.915 30.8588L94.8811 53.5017C93.195 54.4553 91.1201 54.4511 89.4381 53.4905L1.61081 3.33582C-0.174348 2.31639 0.879854 -0.377919 2.89857 0.0445752L134.389 27.5639Z" fill="#FF6C58"/>
<path d="M41.6138 148.815C42.2515 150.747 45.1494 150.298 45.1535 148.267L45.3836 48.3524C45.3887 46.4374 44.355 44.6654 42.6721 43.7044L2.72929 20.8956C1.28973 20.0735 -0.420731 21.4338 0.0933985 22.9918L41.6138 148.815Z" fill="#243859"/>
<path d="M74.7697 60.8206C75.8942 61.4567 75.8942 63.0467 74.7697 63.6827L62.5408 70.5992C61.4164 71.2353 60.0107 70.4402 60.0107 69.1682L60.0107 55.3351C60.0107 54.0631 61.4164 53.2681 62.5408 53.9041L74.7697 60.8206Z" fill="#243859"/>
<path d="M192.7 56.9666H208.1C210.811 56.9666 213.256 57.2111 215.434 57.7C217.611 58.1889 219.478 58.9889 221.034 60.1C222.589 61.2111 223.789 62.6333 224.634 64.3666C225.478 66.1 225.9 68.1889 225.9 70.6333C225.9 73.2555 225.411 75.4555 224.434 77.2333C223.456 79.0111 222.122 80.4555 220.434 81.5666C218.789 82.6333 216.856 83.4111 214.634 83.9C212.411 84.3889 210.056 84.6333 207.567 84.6333H201.1V104.167H192.7V56.9666ZM206.967 77.5666C208.345 77.5666 209.656 77.4777 210.9 77.3C212.145 77.0777 213.256 76.7222 214.234 76.2333C215.211 75.7 215.989 74.9889 216.567 74.1C217.145 73.2111 217.434 72.0555 217.434 70.6333C217.434 69.2555 217.145 68.1444 216.567 67.3C215.989 66.4111 215.211 65.7222 214.234 65.2333C213.3 64.7444 212.211 64.4333 210.967 64.3C209.767 64.1222 208.522 64.0333 207.234 64.0333H201.1V77.5666H206.967Z" fill="#212529"/>
<path d="M229.93 72.1666H237.597V77.5H237.73C238.619 75.6333 239.864 74.1222 241.464 72.9666C243.064 71.8111 244.93 71.2333 247.064 71.2333C247.375 71.2333 247.708 71.2555 248.064 71.3C248.419 71.3 248.73 71.3444 248.997 71.4333V78.7666C248.464 78.6333 247.997 78.5444 247.597 78.5C247.242 78.4555 246.886 78.4333 246.53 78.4333C244.708 78.4333 243.242 78.7666 242.13 79.4333C241.019 80.1 240.153 80.9 239.53 81.8333C238.908 82.7666 238.486 83.7222 238.264 84.7C238.042 85.6777 237.93 86.4555 237.93 87.0333V104.167H229.93V72.1666Z" fill="#212529"/>
<path d="M251.176 88.0333C251.176 85.5 251.62 83.2111 252.509 81.1666C253.442 79.0777 254.687 77.3 256.242 75.8333C257.798 74.3666 259.642 73.2333 261.776 72.4333C263.909 71.6333 266.176 71.2333 268.576 71.2333C270.976 71.2333 273.242 71.6333 275.376 72.4333C277.509 73.2333 279.354 74.3666 280.909 75.8333C282.465 77.3 283.687 79.0777 284.576 81.1666C285.509 83.2111 285.976 85.5 285.976 88.0333C285.976 90.5666 285.509 92.8777 284.576 94.9666C283.687 97.0555 282.465 98.8555 280.909 100.367C279.354 101.833 277.509 102.989 275.376 103.833C273.242 104.678 270.976 105.1 268.576 105.1C266.176 105.1 263.909 104.678 261.776 103.833C259.642 102.989 257.798 101.833 256.242 100.367C254.687 98.8555 253.442 97.0555 252.509 94.9666C251.62 92.8777 251.176 90.5666 251.176 88.0333ZM259.309 88.0333C259.309 89.2777 259.487 90.5222 259.842 91.7666C260.242 93.0111 260.82 94.1222 261.576 95.1C262.331 96.0777 263.287 96.8777 264.442 97.5C265.598 98.1222 266.976 98.4333 268.576 98.4333C270.176 98.4333 271.554 98.1222 272.709 97.5C273.865 96.8777 274.82 96.0777 275.576 95.1C276.331 94.1222 276.887 93.0111 277.242 91.7666C277.642 90.5222 277.842 89.2777 277.842 88.0333C277.842 86.7889 277.642 85.5666 277.242 84.3666C276.887 83.1222 276.331 82.0111 275.576 81.0333C274.82 80.0555 273.865 79.2777 272.709 78.7C271.554 78.0777 270.176 77.7666 268.576 77.7666C266.976 77.7666 265.598 78.0777 264.442 78.7C263.287 79.2777 262.331 80.0555 261.576 81.0333C260.82 82.0111 260.242 83.1222 259.842 84.3666C259.487 85.5666 259.309 86.7889 259.309 88.0333Z" fill="#212529"/>
<path d="M301.399 72.1666V76.6333H301.599C301.999 76.0111 302.51 75.3889 303.132 74.7666C303.799 74.1 304.599 73.5222 305.533 73.0333C306.466 72.5 307.51 72.0777 308.666 71.7666C309.866 71.4111 311.199 71.2333 312.666 71.2333C314.932 71.2333 317.021 71.6777 318.933 72.5666C320.844 73.4111 322.488 74.5889 323.866 76.1C325.244 77.6111 326.31 79.3889 327.066 81.4333C327.821 83.4777 328.199 85.6777 328.199 88.0333C328.199 90.3889 327.821 92.6111 327.066 94.7C326.355 96.7444 325.31 98.5444 323.933 100.1C322.599 101.611 320.955 102.833 318.999 103.767C317.088 104.656 314.91 105.1 312.466 105.1C310.199 105.1 308.11 104.633 306.199 103.7C304.333 102.767 302.888 101.5 301.866 99.9H301.732V120.167H293.732V72.1666H301.399ZM320.066 88.0333C320.066 86.7889 319.866 85.5666 319.466 84.3666C319.11 83.1222 318.555 82.0111 317.799 81.0333C317.044 80.0555 316.088 79.2777 314.932 78.7C313.777 78.0777 312.421 77.7666 310.866 77.7666C309.399 77.7666 308.088 78.0777 306.932 78.7C305.777 79.3222 304.777 80.1222 303.933 81.1C303.132 82.0777 302.51 83.1889 302.066 84.4333C301.666 85.6777 301.466 86.9222 301.466 88.1666C301.466 89.4111 301.666 90.6555 302.066 91.9C302.51 93.1 303.132 94.1889 303.933 95.1666C304.777 96.1444 305.777 96.9444 306.932 97.5666C308.088 98.1444 309.399 98.4333 310.866 98.4333C312.421 98.4333 313.777 98.1222 314.932 97.5C316.088 96.8777 317.044 96.0777 317.799 95.1C318.555 94.1222 319.11 93.0111 319.466 91.7666C319.866 90.5222 320.066 89.2777 320.066 88.0333Z" fill="#212529"/>
<path d="M358.453 84.9666C358.453 83.9444 358.298 82.9666 357.987 82.0333C357.72 81.1 357.276 80.2777 356.653 79.5666C356.031 78.8555 355.231 78.3 354.253 77.9C353.32 77.4555 352.209 77.2333 350.92 77.2333C348.52 77.2333 346.476 77.9666 344.787 79.4333C343.142 80.8555 342.231 82.7 342.053 84.9666H358.453ZM366.453 88.5666C366.453 88.9222 366.453 89.2777 366.453 89.6333C366.453 89.9889 366.431 90.3444 366.387 90.7H342.053C342.142 91.8555 342.431 92.9222 342.92 93.9C343.453 94.8333 344.142 95.6555 344.987 96.3666C345.831 97.0333 346.787 97.5666 347.853 97.9666C348.92 98.3666 350.031 98.5666 351.187 98.5666C353.187 98.5666 354.876 98.2111 356.253 97.5C357.631 96.7444 358.764 95.7222 359.653 94.4333L364.987 98.7C361.831 102.967 357.253 105.1 351.253 105.1C348.764 105.1 346.476 104.722 344.387 103.967C342.298 103.167 340.476 102.056 338.92 100.633C337.409 99.2111 336.209 97.4777 335.32 95.4333C334.476 93.3444 334.053 90.9889 334.053 88.3666C334.053 85.7889 334.476 83.4555 335.32 81.3666C336.209 79.2333 337.409 77.4333 338.92 75.9666C340.431 74.4555 342.209 73.3 344.253 72.5C346.342 71.6555 348.587 71.2333 350.987 71.2333C353.209 71.2333 355.253 71.6111 357.12 72.3666C359.031 73.0777 360.676 74.1666 362.053 75.6333C363.431 77.0555 364.498 78.8555 365.253 81.0333C366.053 83.1666 366.453 85.6777 366.453 88.5666Z" fill="#212529"/>
<path d="M374.335 53.7666H382.335V104.167H374.335V53.7666Z" fill="#212529"/>
<path d="M392.173 72.1666H400.173V104.167H392.173V72.1666ZM391.04 61.3C391.04 60.0111 391.506 58.9 392.44 57.9666C393.418 56.9889 394.64 56.5 396.106 56.5C397.573 56.5 398.795 56.9666 399.773 57.9C400.795 58.7889 401.306 59.9222 401.306 61.3C401.306 62.6777 400.795 63.8333 399.773 64.7666C398.795 65.6555 397.573 66.1 396.106 66.1C394.64 66.1 393.418 65.6333 392.44 64.7C391.506 63.7222 391.04 62.5889 391.04 61.3Z" fill="#212529"/>
<path d="M431.745 81.0333C431.123 80.1444 430.189 79.4111 428.945 78.8333C427.701 78.2111 426.434 77.9 425.145 77.9C423.678 77.9 422.389 78.2111 421.278 78.8333C420.167 79.4111 419.234 80.1889 418.478 81.1666C417.767 82.1444 417.234 83.2555 416.878 84.5C416.523 85.7 416.345 86.9222 416.345 88.1666C416.345 89.4111 416.523 90.6555 416.878 91.9C417.278 93.1 417.856 94.1889 418.612 95.1666C419.367 96.1444 420.301 96.9444 421.412 97.5666C422.567 98.1444 423.901 98.4333 425.412 98.4333C426.656 98.4333 427.901 98.1889 429.145 97.7C430.389 97.2111 431.389 96.5 432.145 95.5666L437.145 100.633C435.812 102.056 434.101 103.167 432.012 103.967C429.967 104.722 427.745 105.1 425.345 105.1C422.989 105.1 420.745 104.722 418.612 103.967C416.523 103.211 414.678 102.1 413.078 100.633C411.523 99.1666 410.278 97.3889 409.345 95.3C408.456 93.2111 408.012 90.8333 408.012 88.1666C408.012 85.5889 408.456 83.2555 409.345 81.1666C410.278 79.0777 411.523 77.3 413.078 75.8333C414.634 74.3666 416.434 73.2333 418.478 72.4333C420.567 71.6333 422.789 71.2333 425.145 71.2333C427.501 71.2333 429.767 71.6777 431.945 72.5666C434.167 73.4555 435.923 74.6777 437.212 76.2333L431.745 81.0333Z" fill="#212529"/>
<path d="M437.63 72.1666H446.497L455.43 95.4333H455.564L463.497 72.1666H471.83L456.697 111.033C456.119 112.5 455.497 113.789 454.83 114.9C454.164 116.056 453.364 117.011 452.43 117.767C451.497 118.567 450.386 119.167 449.097 119.567C447.853 119.967 446.342 120.167 444.564 120.167C443.897 120.167 443.208 120.122 442.497 120.033C441.83 119.989 441.142 119.878 440.43 119.7L441.097 112.767C441.63 112.944 442.142 113.056 442.63 113.1C443.164 113.189 443.653 113.233 444.097 113.233C444.942 113.233 445.653 113.122 446.23 112.9C446.808 112.722 447.297 112.411 447.697 111.967C448.097 111.567 448.453 111.056 448.764 110.433C449.075 109.811 449.408 109.078 449.764 108.233L451.364 104.167L437.63 72.1666Z" fill="#212529"/>
<script xmlns=""/></svg>